<!DOCTYPE svg PUBLIC "-//W3C//DTD SVG 1.1//EN" "http://www.w3.org/Graphics/SVG/1.1/DTD/svg11.dtd">
<!-- Uploaded to: SVG Repo, www.svgrepo.com, Transformed by: SVG Repo Mixer Tools -->
<svg width="800px" height="800px" viewBox="0 0 64 64" xmlns="http://www.w3.org/2000/svg" fill="#000000">
<g id="SVGRepo_bgCarrier" stroke-width="0"/>
<g id="SVGRepo_tracerCarrier" stroke-linecap="round" stroke-linejoin="round"/>
<g id="SVGRepo_iconCarrier"> <title>mosque</title> <g id="mosque"> <circle cx="23.5" cy="25.5" r="21.5" style="fill:#e5efef"/> <circle cx="56.044" cy="8.014" r="1.069" style="fill:#4c241d"/> <circle cx="53.5" cy="18.5" r="2.5" style="fill:none;stroke:#4c241d;stroke-linecap:round;stroke-linejoin:round;stroke-width:2px"/> <line x1="11" y1="16" x2="14" y2="19" style="fill:none;stroke:#4c241d;stroke-linecap:round;stroke-linejoin:round;stroke-width:2px"/> <line x1="14" y1="16" x2="11" y2="19" style="fill:none;stroke:#4c241d;stroke-linecap:round;stroke-linejoin:round;stroke-width:2px"/> <rect x="5" y="49" width="55" height="8" style="fill:#ffded5;stroke:#4c241d;stroke-linecap:round;stroke-linejoin:round;stroke-width:2px"/> <polygon points="47 31 18 31 5 36 5 49 60 49 60 36 47 31" style="fill:#9dc1e4;stroke:#4c241d;stroke-linecap:round;stroke-linejoin:round;stroke-width:2px"/> <path d="M10,42h0a2,2,0,0,1,2,2V57a0,0,0,0,1,0,0H8a0,0,0,0,1,0,0V44A2,2,0,0,1,10,42Z" style="fill:none;stroke:#4c241d;stroke-linecap:round;stroke-linejoin:round;stroke-width:2px"/> <path d="M18,41h0a2,2,0,0,1,2,2V57a0,0,0,0,1,0,0H16a0,0,0,0,1,0,0V43A2,2,0,0,1,18,41Z" style="fill:none;stroke:#4c241d;stroke-linecap:round;stroke-linejoin:round;stroke-width:2px"/> <path d="M47,41h0a2,2,0,0,1,2,2V57a0,0,0,0,1,0,0H45a0,0,0,0,1,0,0V43A2,2,0,0,1,47,41Z" style="fill:none;stroke:#4c241d;stroke-linecap:round;stroke-linejoin:round;stroke-width:2px"/> <path d="M40,40h0a2,2,0,0,1,2,2V57a0,0,0,0,1,0,0H38a0,0,0,0,1,0,0V42a2,2,0,0,1,2-2Z" style="fill:none;stroke:#4c241d;stroke-linecap:round;stroke-linejoin:round;stroke-width:2px"/> <path d="M25,40h0a2,2,0,0,1,2,2V57a0,0,0,0,1,0,0H23a0,0,0,0,1,0,0V42a2,2,0,0,1,2-2Z" style="fill:none;stroke:#4c241d;stroke-linecap:round;stroke-linejoin:round;stroke-width:2px"/> <path d="M32.5,37h0A2.5,2.5,0,0,1,35,39.5V49a0,0,0,0,1,0,0H30a0,0,0,0,1,0,0V39.5A2.5,2.5,0,0,1,32.5,37Z" style="fill:none;stroke:#4c241d;stroke-linecap:round;stroke-linejoin:round;stroke-width:2px"/> <path d="M55,42h0a2,2,0,0,1,2,2V57a0,0,0,0,1,0,0H53a0,0,0,0,1,0,0V44A2,2,0,0,1,55,42Z" style="fill:none;stroke:#4c241d;stroke-linecap:round;stroke-linejoin:round;stroke-width:2px"/> <rect x="30" y="49" width="5" height="8" style="fill:#6b4f5b;stroke:#4c241d;stroke-linejoin:round;stroke-width:2px"/> <line x1="18" y1="31.411" x2="18" y2="38" style="fill:none;stroke:#4c241d;stroke-linecap:round;stroke-linejoin:round;stroke-width:2px"/> <line x1="47" y1="31.411" x2="47" y2="38" style="fill:none;stroke:#4c241d;stroke-linecap:round;stroke-linejoin:round;stroke-width:2px"/> <rect x="22" y="23" width="21" height="8" style="fill:#9dc1e4;stroke:#4c241d;stroke-linecap:round;stroke-linejoin:round;stroke-width:2px"/> <path d="M32.5,8h0A12.5,12.5,0,0,1,45,20.5V23a0,0,0,0,1,0,0H20a0,0,0,0,1,0,0V20.5A12.5,12.5,0,0,1,32.5,8Z" style="fill:#ffce56;stroke:#4c241d;stroke-linecap:round;stroke-linejoin:round;stroke-width:2px"/> <rect x="25" y="26" width="3" height="5" style="fill:#9dc1e4;stroke:#4c241d;stroke-linecap:round;stroke-linejoin:round;stroke-width:2px"/> <rect x="31" y="26" width="3" height="5" style="fill:#9dc1e4;stroke:#4c241d;stroke-linecap:round;stroke-linejoin:round;stroke-width:2px"/> <rect x="37" y="26" width="3" height="5" style="fill:#9dc1e4;stroke:#4c241d;stroke-linecap:round;stroke-linejoin:round;stroke-width:2px"/> <polyline points="34 8 32.5 3 31 8" style="fill:none;stroke:#4c241d;stroke-linecap:round;stroke-linejoin:round;stroke-width:2px"/> </g> </g>
</svg>